<?xml version="1.0"?><svg xmlns="http://www.w3.org/2000/svg"  viewBox="0 0 50 50" width="50px" height="50px">    <path d="M41,4H9C6.243,4,4,6.243,4,9v32c0,2.757,2.243,5,5,5h32c2.757,0,5-2.243,5-5V9C46,6.243,43.757,4,41,4z M15.972,26.563 c-0.7,0.275-1.49-0.069-1.765-0.769l-2.567-6.532c-0.275-0.7,0.069-1.49,0.769-1.765h0c0.7-0.275,1.49,0.069,1.765,0.769 l2.567,6.532C17.016,25.498,16.672,26.288,15.972,26.563z M28.081,26.439c-0.7,0.275-1.49-0.069-1.765-0.769l-1.43-3.639 l-4.914,12.052c-0.284,0.696-1.078,1.031-1.775,0.747s-1.031-1.078-0.747-1.775l6.202-15.21c0.048-0.117,0.117-0.224,0.193-0.322 c0.366-0.467,1.005-0.66,1.582-0.425c0.381,0.156,0.649,0.466,0.771,0.828l2.652,6.749C29.125,25.374,28.78,26.164,28.081,26.439z M38.354,18.998l-6.179,15.154c-0.284,0.696-1.078,1.031-1.775,0.747c-0.696-0.284-1.031-1.078-0.747-1.775l6.179-15.154 c0.284-0.696,1.078-1.031,1.775-0.747C38.303,17.507,38.637,18.301,38.354,18.998z"/></svg>